<svg xmlns="http://www.w3.org/2000/svg" xmlns:xlink="http://www.w3.org/1999/xlink" width="1080" zoomAndPan="magnify" viewBox="0 0 810 809.999993" height="1080" preserveAspectRatio="xMidYMid meet" version="1.0"><defs><g/><clipPath id="id1"><path d="M 169.785156 21.40625 L 640 21.40625 L 640 565.15625 L 169.785156 565.15625 Z M 169.785156 21.40625 " clip-rule="nonzero"/></clipPath></defs><g clip-path="url(#id1)"><path fill="#799e29" d="M 401.238281 546.785156 C 375.539062 517.394531 346.167969 469.632812 335.15625 440.238281 C 188.300781 396.152344 151.585938 161.015625 342.496094 21.40625 C 331.484375 127.949219 412.253906 201.429688 441.625 274.910156 C 415.925781 330.019531 368.195312 370.433594 382.882812 418.195312 C 379.210938 421.871094 371.867188 425.542969 364.527344 429.21875 C 335.15625 385.128906 320.46875 322.671875 313.125 241.84375 C 305.785156 355.738281 342.496094 454.933594 423.265625 543.109375 C 470.996094 488 493.023438 421.871094 485.679688 352.0625 C 482.007812 403.5 470.996094 447.585938 452.636719 476.980469 C 313.125 385.128906 478.335938 326.347656 467.324219 205.105469 C 592.148438 296.953125 570.121094 454.933594 470.996094 480.652344 C 459.980469 510.046875 448.964844 528.414062 434.28125 546.785156 L 628.863281 546.785156 C 636.207031 546.785156 639.875 550.457031 639.875 557.808594 C 639.875 561.480469 636.207031 565.15625 628.863281 565.15625 L 180.957031 565.15625 C 173.617188 565.15625 169.945312 561.480469 169.945312 557.808594 C 169.945312 550.457031 173.617188 546.785156 180.957031 546.785156 Z M 401.238281 546.785156 " fill-opacity="1" fill-rule="evenodd"/></g><g fill="#000000" fill-opacity="1"><g transform="translate(161.818274, 760.112094)"><g><path d="M 94.65625 2.3125 C 80.96875 2.3125 69.03125 0.238281 58.84375 -3.90625 C 48.664062 -8.0625 40.210938 -13.941406 33.484375 -21.546875 C 26.765625 -29.160156 21.75 -38.304688 18.4375 -48.984375 C 15.132812 -59.671875 13.484375 -71.507812 13.484375 -84.5 C 13.484375 -97.257812 15.234375 -108.941406 18.734375 -119.546875 C 22.234375 -130.160156 27.457031 -139.269531 34.40625 -146.875 C 41.363281 -154.488281 49.992188 -160.40625 60.296875 -164.625 C 70.597656 -168.851562 82.550781 -170.96875 96.15625 -170.96875 C 104.914062 -170.96875 112.539062 -170.296875 119.03125 -168.953125 C 125.53125 -167.609375 130.945312 -165.742188 135.28125 -163.359375 C 139.625 -160.972656 142.875 -158.164062 145.03125 -154.9375 C 147.1875 -151.71875 148.265625 -148.222656 148.265625 -144.453125 C 148.265625 -141.921875 147.6875 -139.632812 146.53125 -137.59375 C 145.375 -135.5625 143.816406 -133.832031 141.859375 -132.40625 C 139.898438 -130.988281 137.59375 -129.894531 134.9375 -129.125 C 132.289062 -128.351562 129.429688 -127.96875 126.359375 -127.96875 C 126.359375 -131.65625 125.816406 -135.304688 124.734375 -138.921875 C 123.660156 -142.535156 121.894531 -145.78125 119.4375 -148.65625 C 116.976562 -151.539062 113.75 -153.882812 109.75 -155.6875 C 105.757812 -157.5 100.878906 -158.40625 95.109375 -158.40625 C 85.117188 -158.40625 76.609375 -156.769531 69.578125 -153.5 C 62.546875 -150.238281 56.800781 -145.472656 52.34375 -139.203125 C 47.882812 -132.941406 44.65625 -125.21875 42.65625 -116.03125 C 40.65625 -106.851562 39.65625 -96.34375 39.65625 -84.5 C 39.65625 -72.738281 40.691406 -62.285156 42.765625 -53.140625 C 44.847656 -43.992188 48.234375 -36.304688 52.921875 -30.078125 C 57.609375 -23.859375 63.675781 -19.132812 71.125 -15.90625 C 78.582031 -12.675781 87.691406 -11.0625 98.453125 -11.0625 C 102.984375 -11.0625 107.382812 -11.289062 111.65625 -11.75 C 115.925781 -12.21875 119.710938 -12.953125 123.015625 -13.953125 L 123.015625 -52 C 123.015625 -55.457031 122.492188 -58.242188 121.453125 -60.359375 C 120.421875 -62.472656 119.019531 -64.082031 117.25 -65.1875 C 115.476562 -66.300781 113.421875 -67.050781 111.078125 -67.4375 C 108.734375 -67.820312 106.253906 -68.015625 103.640625 -68.015625 L 102.71875 -68.015625 L 102.71875 -77.9375 L 164.046875 -77.9375 L 164.046875 -68.015625 L 163.125 -68.015625 C 160.894531 -68.015625 158.78125 -67.820312 156.78125 -67.4375 C 154.789062 -67.050781 153.0625 -66.265625 151.59375 -65.078125 C 150.132812 -63.890625 148.984375 -62.160156 148.140625 -59.890625 C 147.296875 -57.617188 146.875 -54.640625 146.875 -50.953125 L 146.875 -8.53125 C 138.957031 -4.84375 130.8125 -2.113281 122.4375 -0.34375 C 114.0625 1.425781 104.800781 2.3125 94.65625 2.3125 Z M 94.65625 2.3125 "/></g></g></g><g fill="#000000" fill-opacity="1"><g transform="translate(324.23387, 760.112094)"><g><path d="M 130.859375 -28.828125 C 134.847656 -22.523438 138.722656 -17.796875 142.484375 -14.640625 C 146.253906 -11.492188 150.640625 -9.921875 155.640625 -9.921875 L 156.328125 -9.921875 L 156.328125 0 L 152.984375 0 C 145.609375 0 139.554688 -0.265625 134.828125 -0.796875 C 130.097656 -1.335938 126.082031 -2.375 122.78125 -3.90625 C 119.476562 -5.445312 116.65625 -7.601562 114.3125 -10.375 C 111.96875 -13.144531 109.445312 -16.757812 106.75 -21.21875 L 74.828125 -74.359375 L 55.21875 -74.359375 L 55.21875 -25.703125 C 55.21875 -22.242188 55.734375 -19.457031 56.765625 -17.34375 C 57.804688 -15.238281 59.210938 -13.644531 60.984375 -12.5625 C 62.753906 -11.488281 64.8125 -10.78125 67.15625 -10.4375 C 69.5 -10.09375 71.976562 -9.921875 74.59375 -9.921875 L 77.703125 -9.921875 L 77.703125 0 L 9 0 L 9 -9.921875 L 11.984375 -9.921875 C 14.597656 -9.921875 17.078125 -10.09375 19.421875 -10.4375 C 21.765625 -10.78125 23.820312 -11.488281 25.59375 -12.5625 C 27.363281 -13.644531 28.765625 -15.238281 29.796875 -17.34375 C 30.835938 -19.457031 31.359375 -22.242188 31.359375 -25.703125 L 31.359375 -142.609375 C 31.359375 -146.066406 30.835938 -148.851562 29.796875 -150.96875 C 28.765625 -153.082031 27.363281 -154.710938 25.59375 -155.859375 C 23.820312 -157.015625 21.765625 -157.765625 19.421875 -158.109375 C 17.078125 -158.460938 14.597656 -158.640625 11.984375 -158.640625 L 9 -158.640625 L 9 -168.546875 L 72.515625 -168.546875 C 92.960938 -168.546875 108.179688 -164.757812 118.171875 -157.1875 C 128.160156 -149.625 133.15625 -138.234375 133.15625 -123.015625 C 133.15625 -116.710938 132.132812 -111.195312 130.09375 -106.46875 C 128.0625 -101.738281 125.390625 -97.644531 122.078125 -94.1875 C 118.773438 -90.726562 115.050781 -87.84375 110.90625 -85.53125 C 106.757812 -83.226562 102.609375 -81.390625 98.453125 -80.015625 Z M 55.21875 -85.421875 L 71.828125 -85.421875 C 78.742188 -85.421875 84.503906 -86.191406 89.109375 -87.734375 C 93.722656 -89.273438 97.410156 -91.582031 100.171875 -94.65625 C 102.941406 -97.726562 104.921875 -101.566406 106.109375 -106.171875 C 107.304688 -110.785156 107.90625 -116.171875 107.90625 -122.328125 C 107.90625 -128.628906 107.25 -133.988281 105.9375 -138.40625 C 104.632812 -142.820312 102.523438 -146.429688 99.609375 -149.234375 C 96.691406 -152.046875 92.90625 -154.082031 88.25 -155.34375 C 83.601562 -156.613281 77.9375 -157.25 71.25 -157.25 L 55.21875 -157.25 Z M 55.21875 -85.421875 "/></g></g></g><g fill="#000000" fill-opacity="1"><g transform="translate(472.929898, 760.112094)"><g><path d="M 161.75 -84.5 C 161.75 -71.507812 160.132812 -59.671875 156.90625 -48.984375 C 153.675781 -38.304688 148.910156 -29.160156 142.609375 -21.546875 C 136.304688 -13.941406 128.539062 -8.0625 119.3125 -3.90625 C 110.09375 0.238281 99.53125 2.3125 87.625 2.3125 C 75.09375 2.3125 64.175781 0.238281 54.875 -3.90625 C 45.570312 -8.0625 37.847656 -13.941406 31.703125 -21.546875 C 25.554688 -29.160156 20.945312 -38.328125 17.875 -49.046875 C 14.800781 -59.773438 13.265625 -71.671875 13.265625 -84.734375 C 13.265625 -97.796875 14.800781 -109.648438 17.875 -120.296875 C 20.945312 -130.941406 25.554688 -140.03125 31.703125 -147.5625 C 37.847656 -155.09375 45.609375 -160.914062 54.984375 -165.03125 C 64.367188 -169.144531 75.320312 -171.203125 87.84375 -171.203125 C 99.757812 -171.203125 110.289062 -169.144531 119.4375 -165.03125 C 128.582031 -160.914062 136.304688 -155.070312 142.609375 -147.5 C 148.910156 -139.9375 153.675781 -130.832031 156.90625 -120.1875 C 160.132812 -109.539062 161.75 -97.644531 161.75 -84.5 Z M 39.421875 -84.5 C 39.421875 -72.820312 40.285156 -62.390625 42.015625 -53.203125 C 43.742188 -44.015625 46.53125 -36.25 50.375 -29.90625 C 54.21875 -23.570312 59.191406 -18.734375 65.296875 -15.390625 C 71.410156 -12.046875 78.851562 -10.375 87.625 -10.375 C 96.382812 -10.375 103.816406 -12.046875 109.921875 -15.390625 C 116.035156 -18.734375 120.992188 -23.570312 124.796875 -29.90625 C 128.597656 -36.25 131.34375 -44.015625 133.03125 -53.203125 C 134.726562 -62.390625 135.578125 -72.820312 135.578125 -84.5 C 135.578125 -96.1875 134.726562 -106.617188 133.03125 -115.796875 C 131.34375 -124.984375 128.597656 -132.726562 124.796875 -139.03125 C 120.992188 -145.332031 116.070312 -150.132812 110.03125 -153.4375 C 104 -156.75 96.601562 -158.40625 87.84375 -158.40625 C 79.082031 -158.40625 71.628906 -156.75 65.484375 -153.4375 C 59.335938 -150.132812 54.320312 -145.332031 50.4375 -139.03125 C 46.550781 -132.726562 43.742188 -124.984375 42.015625 -115.796875 C 40.285156 -106.617188 39.421875 -96.1875 39.421875 -84.5 Z M 39.421875 -84.5 "/></g></g></g></svg>